<svg xmlns="http://www.w3.org/2000/svg" xmlns:xlink="http://www.w3.org/1999/xlink" id="processonSvg1000" viewBox="63.375 55.0 1090.25 862.0" width="1090.25" height="862.0"><defs id="ProcessOnDefs1001"><marker id="ProcessOnMarker1093" markerUnits="userSpaceOnUse" orient="auto" markerWidth="14.118033988749895" markerHeight="9.174454630060925" viewBox="-0.5 -0.6881909602355868 14.118033988749895 9.174454630060925" refX="-0.5" refY="3.8990363547948754"><path id="ProcessOnPath1094" d="M12.0 3.8990363547948754L0.0 7.798072709589751V0.0Z" stroke="#66b2ff" stroke-width="1.0" fill="#66b2ff" transform="matrix(1.0,0.0,0.0,1.0,0.0,0.0)"/></marker><marker id="ProcessOnMarker1097" markerUnits="userSpaceOnUse" orient="auto" markerWidth="14.118033988749895" markerHeight="9.174454630060925" viewBox="-0.5 -0.6881909602355868 14.118033988749895 9.174454630060925" refX="-0.5" refY="3.8990363547948754"><path id="ProcessOnPath1098" d="M12.0 3.8990363547948754L0.0 7.798072709589751V0.0Z" stroke="#66b2ff" stroke-width="1.0" fill="#66b2ff" transform="matrix(1.0,0.0,0.0,1.0,0.0,0.0)"/></marker><marker id="ProcessOnMarker1101" markerUnits="userSpaceOnUse" orient="auto" markerWidth="14.118033988749895" markerHeight="9.174454630060925" viewBox="-0.5 -0.6881909602355868 14.118033988749895 9.174454630060925" refX="-0.5" refY="3.8990363547948754"><path id="ProcessOnPath1102" d="M12.0 3.8990363547948754L0.0 7.798072709589751V0.0Z" stroke="#66b2ff" stroke-width="1.0" fill="#66b2ff" transform="matrix(1.0,0.0,0.0,1.0,0.0,0.0)"/></marker><marker id="ProcessOnMarker1109" markerUnits="userSpaceOnUse" orient="auto" markerWidth="14.118033988749895" markerHeight="9.174454630060925" viewBox="-0.5 -0.6881909602355868 14.118033988749895 9.174454630060925" refX="-0.5" refY="3.8990363547948754"><path id="ProcessOnPath1110" d="M12.0 3.8990363547948754L0.0 7.798072709589751V0.0Z" stroke="#66b2ff" stroke-width="1.0" fill="#66b2ff" transform="matrix(1.0,0.0,0.0,1.0,0.0,0.0)"/></marker><marker id="ProcessOnMarker1113" markerUnits="userSpaceOnUse" orient="auto" markerWidth="14.118033988749895" markerHeight="9.174454630060925" viewBox="-0.5 -0.6881909602355868 14.118033988749895 9.174454630060925" refX="-0.5" refY="3.8990363547948754"><path id="ProcessOnPath1114" d="M12.0 3.8990363547948754L0.0 7.798072709589751V0.0Z" stroke="#66b2ff" stroke-width="1.0" fill="#66b2ff" transform="matrix(1.0,0.0,0.0,1.0,0.0,0.0)"/></marker><marker id="ProcessOnMarker1117" markerUnits="userSpaceOnUse" orient="auto" markerWidth="14.118033988749895" markerHeight="9.174454630060925" viewBox="-0.5 -0.6881909602355868 14.118033988749895 9.174454630060925" refX="-0.5" refY="3.8990363547948754"><path id="ProcessOnPath1118" d="M12.0 3.8990363547948754L0.0 7.798072709589751V0.0Z" stroke="#66b2ff" stroke-width="1.0" fill="#66b2ff" transform="matrix(1.0,0.0,0.0,1.0,0.0,0.0)"/></marker><marker id="ProcessOnMarker1129" markerUnits="userSpaceOnUse" orient="auto" markerWidth="14.118033988749895" markerHeight="9.174454630060925" viewBox="-0.5 -0.6881909602355868 14.118033988749895 9.174454630060925" refX="-0.5" refY="3.8990363547948754"><path id="ProcessOnPath1130" d="M12.0 3.8990363547948754L0.0 7.798072709589751V0.0Z" stroke="#66b2ff" stroke-width="1.0" fill="#66b2ff" transform="matrix(1.0,0.0,0.0,1.0,0.0,0.0)"/></marker><marker id="ProcessOnMarker1141" markerUnits="userSpaceOnUse" orient="auto" markerWidth="14.118033988749895" markerHeight="9.174454630060925" viewBox="-0.5 -0.6881909602355868 14.118033988749895 9.174454630060925" refX="-0.5" refY="3.8990363547948754"><path id="ProcessOnPath1142" d="M12.0 3.8990363547948754L0.0 7.798072709589751V0.0Z" stroke="#3399ff" stroke-width="1.0" fill="#3399ff" transform="matrix(1.0,0.0,0.0,1.0,0.0,0.0)"/></marker><marker id="ProcessOnMarker1145" markerUnits="userSpaceOnUse" orient="auto" markerWidth="14.118033988749895" markerHeight="9.174454630060925" viewBox="-0.5 -0.6881909602355868 14.118033988749895 9.174454630060925" refX="-0.5" refY="3.8990363547948754"><path id="ProcessOnPath1146" d="M12.0 3.8990363547948754L0.0 7.798072709589751V0.0Z" stroke="#66b2ff" stroke-width="1.0" fill="#66b2ff" transform="matrix(1.0,0.0,0.0,1.0,0.0,0.0)"/></marker><marker id="ProcessOnMarker1149" markerUnits="userSpaceOnUse" orient="auto" markerWidth="14.118033988749895" markerHeight="9.174454630060925" viewBox="-0.5 -0.6881909602355868 14.118033988749895 9.174454630060925" refX="-0.5" refY="3.8990363547948754"><path id="ProcessOnPath1150" d="M12.0 3.8990363547948754L0.0 7.798072709589751V0.0Z" stroke="#66b2ff" stroke-width="1.0" fill="#66b2ff" transform="matrix(1.0,0.0,0.0,1.0,0.0,0.0)"/></marker><marker id="ProcessOnMarker1157" markerUnits="userSpaceOnUse" orient="auto" markerWidth="14.118033988749895" markerHeight="9.174454630060925" viewBox="-0.5 -0.6881909602355868 14.118033988749895 9.174454630060925" refX="-0.5" refY="3.8990363547948754"><path id="ProcessOnPath1158" d="M12.0 3.8990363547948754L0.0 7.798072709589751V0.0Z" stroke="#66b2ff" stroke-width="1.0" fill="#66b2ff" transform="matrix(1.0,0.0,0.0,1.0,0.0,0.0)"/></marker><marker id="ProcessOnMarker1161" markerUnits="userSpaceOnUse" orient="auto" markerWidth="14.118033988749895" markerHeight="9.174454630060925" viewBox="-0.5 -0.6881909602355868 14.118033988749895 9.174454630060925" refX="-0.5" refY="3.8990363547948754"><path id="ProcessOnPath1162" d="M12.0 3.8990363547948754L0.0 7.798072709589751V0.0Z" stroke="#66b2ff" stroke-width="1.0" fill="#66b2ff" transform="matrix(1.0,0.0,0.0,1.0,0.0,0.0)"/></marker><marker id="ProcessOnMarker1165" markerUnits="userSpaceOnUse" orient="auto" markerWidth="14.118033988749895" markerHeight="9.174454630060925" viewBox="-0.5 -0.6881909602355868 14.118033988749895 9.174454630060925" refX="-0.5" refY="3.8990363547948754"><path id="ProcessOnPath1166" d="M12.0 3.8990363547948754L0.0 7.798072709589751V0.0Z" stroke="#66b2ff" stroke-width="1.0" fill="#66b2ff" transform="matrix(1.0,0.0,0.0,1.0,0.0,0.0)"/></marker><marker id="ProcessOnMarker1169" markerUnits="userSpaceOnUse" orient="auto" markerWidth="14.118033988749895" markerHeight="9.174454630060925" viewBox="-0.5 -0.6881909602355868 14.118033988749895 9.174454630060925" refX="-0.5" refY="3.8990363547948754"><path id="ProcessOnPath1170" d="M12.0 3.8990363547948754L0.0 7.798072709589751V0.0Z" stroke="#66b2ff" stroke-width="1.0" fill="#66b2ff" transform="matrix(1.0,0.0,0.0,1.0,0.0,0.0)"/></marker><marker id="ProcessOnMarker1173" markerUnits="userSpaceOnUse" orient="auto" markerWidth="14.118033988749895" markerHeight="9.174454630060925" viewBox="-0.5 -0.6881909602355868 14.118033988749895 9.174454630060925" refX="-0.5" refY="3.8990363547948754"><path id="ProcessOnPath1174" d="M12.0 3.8990363547948754L0.0 7.798072709589751V0.0Z" stroke="#66b2ff" stroke-width="1.0" fill="#66b2ff" transform="matrix(1.0,0.0,0.0,1.0,0.0,0.0)"/></marker><marker id="ProcessOnMarker1177" markerUnits="userSpaceOnUse" orient="auto" markerWidth="14.118033988749895" markerHeight="9.174454630060925" viewBox="-0.5 -0.6881909602355868 14.118033988749895 9.174454630060925" refX="13.618033988749895" refY="3.8990363547948754"><path id="ProcessOnPath1178" d="M12.0 3.8990363547948754L0.0 7.798072709589751V0.0Z" stroke="#66b2ff" stroke-width="1.0" fill="#66b2ff" transform="matrix(-1.0,1.2246467991473532E-16,-1.2246467991473532E-16,-1.0,13.118033988749897,7.798072709589751)"/></marker><marker id="ProcessOnMarker1179" markerUnits="userSpaceOnUse" orient="auto" markerWidth="14.118033988749895" markerHeight="9.174454630060925" viewBox="-0.5 -0.6881909602355868 14.118033988749895 9.174454630060925" refX="-0.5" refY="3.8990363547948754"><path id="ProcessOnPath1180" d="M12.0 3.8990363547948754L0.0 7.798072709589751V0.0Z" stroke="#66b2ff" stroke-width="1.0" fill="#66b2ff" transform="matrix(1.0,0.0,0.0,1.0,0.0,0.0)"/></marker></defs><g id="ProcessOnG1002"><path id="ProcessOnPath1003" d="M63.375 55.0H1153.625V917.0H63.375V55.0Z" fill="none"/><g id="ProcessOnG1004"><g id="ProcessOnG1005" transform="matrix(1.0,0.0,0.0,1.0,775.25,646.25)" opacity="1.0"><path id="ProcessOnPath1006" d="M0.0 0.0L224.375 0.0L224.375 195.0L0.0 195.0Z" stroke="#8a8a8a" stroke-width="1.0" stroke-dasharray="5.0 2.0" opacity="1.0" fill="#ffffff"/></g><g id="ProcessOnG1007" transform="matrix(1.0,0.0,0.0,1.0,302.875,632.0)" opacity="1.0"><path id="ProcessOnPath1008" d="M0.0 0.0L418.625 0.0L418.625 261.0L0.0 261.0Z" stroke="#8a8a8a" stroke-width="1.0" stroke-dasharray="5.0 2.0" opacity="1.0" fill="#ffffff"/></g><g id="ProcessOnG1009" transform="matrix(1.0,0.0,0.0,1.0,367.25,784.0)" opacity="1.0"><path id="ProcessOnPath1010" d="M0.0 0.0L287.0 0.0L287.0 97.0L0.0 97.0Z" stroke="#8a8a8a" stroke-width="1.0" stroke-dasharray="5.0 2.0" opacity="1.0" fill="#ffffff"/></g><g id="ProcessOnG1011" transform="matrix(1.0,0.0,0.0,1.0,771.625,404.78125)" opacity="1.0"><path id="ProcessOnPath1012" d="M0.0 0.0L129.0 0.0L129.0 98.3125L0.0 98.3125Z" stroke="#8a8a8a" stroke-width="1.0" stroke-dasharray="5.0 2.0" opacity="1.0" fill="#ffffff"/></g><g id="ProcessOnG1013" transform="matrix(1.0,0.0,0.0,1.0,600.875,403.6875)" opacity="1.0"><path id="ProcessOnPath1014" d="M0.0 0.0L129.0 0.0L129.0 98.3125L0.0 98.3125Z" stroke="#8a8a8a" stroke-width="1.0" stroke-dasharray="5.0 2.0" opacity="1.0" fill="#ffffff"/></g><g id="ProcessOnG1015" transform="matrix(1.0,0.0,0.0,1.0,315.375,402.109375)" opacity="1.0"><path id="ProcessOnPath1016" d="M0.0 0.0L250.25 0.0L250.25 103.65625L0.0 103.65625Z" stroke="#8a8a8a" stroke-width="1.0" stroke-dasharray="5.0 2.0" opacity="1.0" fill="#ffffff"/></g><g id="ProcessOnG1017" transform="matrix(1.0,0.0,0.0,1.0,83.375,638.25)" opacity="1.0"><path id="ProcessOnPath1018" d="M0.0 0.0L122.25 0.0L122.25 258.75L0.0 258.75Z" stroke="#8a8a8a" stroke-width="1.0" stroke-dasharray="5.0 2.0" opacity="1.0" fill="#ffffff"/></g><g id="ProcessOnG1019" transform="matrix(1.0,0.0,0.0,1.0,980.125,400.1875)" opacity="1.0"><path id="ProcessOnPath1020" d="M0.0 0.0L153.5 0.0L153.5 107.5L0.0 107.5Z" stroke="#8a8a8a" stroke-width="1.0" stroke-dasharray="5.0 2.0" opacity="1.0" fill="#ffffff"/></g><g id="ProcessOnG1021" transform="matrix(1.0,0.0,0.0,1.0,89.125,400.1875)" opacity="1.0"><path id="ProcessOnPath1022" d="M0.0 0.0L157.5 0.0L157.5 107.5L0.0 107.5Z" stroke="#8a8a8a" stroke-width="1.0" stroke-dasharray="5.0 2.0" opacity="1.0" fill="#ffffff"/></g><g id="ProcessOnG1023" transform="matrix(1.0,0.0,0.0,1.0,364.375,241.0)" opacity="1.0"><path id="ProcessOnPath1024" d="M0.0 0.0L149.5 0.0L149.5 88.0L0.0 88.0Z" stroke="#8a8a8a" stroke-width="1.0" stroke-dasharray="5.0 2.0" opacity="1.0" fill="#ffffff"/></g><g id="ProcessOnG1025" transform="matrix(1.0,0.0,0.0,1.0,756.875,75.0)" opacity="1.0"><path id="ProcessOnPath1026" d="M0.0 0.0L143.75 0.0L143.75 88.0L0.0 88.0Z" stroke="#8a8a8a" stroke-width="1.0" stroke-dasharray="5.0 2.0" opacity="1.0" fill="#ffffff"/></g><g id="ProcessOnG1027" transform="matrix(1.0,0.0,0.0,1.0,364.375,79.0)" opacity="1.0"><path id="ProcessOnPath1028" d="M0.0 0.0L149.5 0.0L149.5 88.0L0.0 88.0Z" stroke="#8a8a8a" stroke-width="1.0" stroke-dasharray="5.0 2.0" opacity="1.0" fill="#ffffff"/></g><g id="ProcessOnG1029" transform="matrix(1.0,0.0,0.0,1.0,411.625,87.0)" opacity="1.0"><g id="ProcessOnG1031" transform="matrix(0.6875,0.0,0.0,0.6216216216216216,0.0,0.0)"> <path fill="#00BCF2" d="M12.171,71.513v-2.488l4.199-0.093c8.087-0.18,11.128-1.028,12.413-3.463 c0.395-0.75,0.423-0.929,0.401-2.611c-0.013-1.182-0.123-2.208-0.317-2.98L28.57,58.7l-12.557-0.079l-12.56-0.079l-0.801-0.364 c-0.938-0.422-1.77-1.236-2.287-2.225L0,55.247V29.271V3.297l0.354-0.663c0.555-1.041,1.242-1.72,2.209-2.194L3.453,0h36.274h36.274 l1.019,0.486c1.212,0.576,2.097,1.419,2.606,2.497L80,3.768V29.32v25.553l-0.423,0.87c-0.501,1.016-1.354,1.809-2.559,2.388 l-0.865,0.411L63.25,58.584l-12.91,0.047l-0.235,0.823c-0.698,2.443-0.913,4.854-0.547,6.082c0.735,2.448,4.252,3.432,12.265,3.443 h2.789v2.51V74H38.391H12.165v-2.489L12.171,71.513z M73.881,29.271V6.2h-33.84H6.203v23.071V52.34h33.838h33.842V29.271H73.881z"/>  </g><g id="ProcessOnG1032" transform="matrix(1.0,0.0,0.0,1.0,-20.0,52.875)"><text id="ProcessOnText1033" fill="#000000" font-size="13" x="46.5" y="13.325" font-family="微软雅黑" font-weight="normal" font-style="normal" text-decoration="none" family="微软雅黑" text-anchor="middle" size="13">客户端</text></g></g><g id="ProcessOnG1034" transform="matrix(1.0,0.0,0.0,1.0,801.8269230769231,83.0)" opacity="1.0"><g id="ProcessOnG1036" transform="matrix(0.09483924278846154,0.0,0.0,0.099609375,0.0,0.0)"> <g> <path fill="#33CCFF" d="M499.037,101.813c-10.847-62.461-25.838-77.337-89.152-88.42c-40.31-7.053-97.21-11.098-156.091-11.098 c-58.363,0-112.338,3.801-151.978,10.687c-62.468,10.855-77.345,25.853-88.405,89.152c-14.663,83.819-14.884,224.882-0.48,308.031 c10.817,62.461,25.815,77.329,89.152,88.42c40.409,7.069,97.431,11.121,156.434,11.121h0.009 c58.218,0,112.087-3.778,151.665-10.634c62.476-10.862,77.359-25.854,88.404-89.167 C513.266,326.071,513.464,184.977,499.037,101.813 M483.24,407.222c-9.918,56.764-19.82,66.772-75.715,76.492 c-38.727,6.703-91.636,10.39-149,10.39h-0.009c-58.148,0-114.181-3.961-153.745-10.877c-56.786-9.947-66.795-19.865-76.469-75.715 c-14.153-81.702-13.939-220.319,0.48-302.699c9.918-56.748,19.82-66.757,75.7-76.461c38.794-6.741,91.817-10.458,149.312-10.458 c58.012,0,113.938,3.961,153.41,10.868c56.748,9.933,66.757,19.843,76.477,75.715C497.85,186.186,497.652,324.819,483.24,407.222" /> <path fill="#33CCFF" d="M352.886,268.62c-9.057,0.076-17.597,2.196-25.341,5.663l-32.814-46.134 c12.2-10.213,20.06-25.049,19.986-41.618c-0.133-30.684-26.741-55.57-59.65-55.57c-32.73,0.161-59.216,25.327-59.088,56.043 c0.086,16.583,8.076,31.315,20.36,41.504l-32.343,46.419c-7.674-3.396-16.137-5.469-25.426-5.469 c-32.696,0.162-59.222,25.294-59.097,56.091c0.133,30.626,26.751,55.491,59.653,55.491c29.879-0.129,54.329-21.144,58.282-48.223 l77.284-0.324c4.234,26.969,28.768,47.739,58.745,47.739c32.738-0.15,59.261-25.294,59.092-56.045 C412.405,293.498,385.744,268.62,352.886,268.62 M294.607,316.838l-77.291,0.32c-2.083-13.341-9.137-25.127-19.425-33.644 l32.312-46.457c7.616,3.41,15.981,5.474,24.866,5.474c0.179,0,0.36-0.002,0.541-0.003c9.112-0.031,17.65-2.153,25.386-5.667 l32.773,46.179C303.534,291.676,296.557,303.45,294.607,316.838"/> </g>  </g><g id="ProcessOnG1037" transform="matrix(1.0,0.0,0.0,1.0,-20.0,57.875)"><text id="ProcessOnText1038" fill="#000000" font-size="13" x="43.27884615384615" y="13.325" font-family="微软雅黑" font-weight="normal" font-style="normal" text-decoration="none" family="微软雅黑" text-anchor="middle" size="13">负载均衡SLB</text></g></g><g id="ProcessOnG1039" transform="matrix(1.0,0.0,0.0,1.0,143.125,412.1875)" opacity="1.0"><g id="ProcessOnG1041" transform="matrix(0.0966796875,0.0,0.0,0.0966796875,0.0,0.0)"> <g> <path fill="#33CCFF" d="M499.037,101.813c-10.847-62.461-25.838-77.337-89.152-88.42c-40.31-7.053-97.21-11.098-156.091-11.098 c-58.363,0-112.338,3.801-151.978,10.687c-62.468,10.855-77.345,25.853-88.405,89.152c-14.663,83.819-14.884,224.882-0.48,308.031 c10.817,62.461,25.815,77.329,89.152,88.42c40.409,7.069,97.431,11.121,156.434,11.121h0.009 c58.218,0,112.087-3.778,151.665-10.634c62.476-10.862,77.359-25.854,88.404-89.167 C513.266,326.071,513.464,184.977,499.037,101.813 M483.24,407.222c-9.918,56.764-19.82,66.772-75.715,76.492 c-38.727,6.703-91.636,10.39-149,10.39h-0.009c-58.148,0-114.181-3.961-153.745-10.877c-56.786-9.947-66.795-19.865-76.469-75.715 c-14.153-81.702-13.939-220.319,0.48-302.699c9.918-56.748,19.82-66.757,75.7-76.461c38.794-6.741,91.817-10.458,149.312-10.458 c58.012,0,113.938,3.961,153.41,10.868c56.748,9.933,66.757,19.843,76.477,75.715C497.85,186.186,497.652,324.819,483.24,407.222" /> <path fill="#33CCFF" d="M437.006,221.645c-18.99-45.903-45.903-52.245-58.568-52.245c-7.924,0-20.589,3.162-33.238,14.247 c-12.666-12.666-25.332-14.247-33.237-14.247c-14.247,0-39.579,6.325-58.569,52.245l-31.656,68.073l-30.075-68.073 c-18.99-45.903-45.903-52.245-58.569-52.245c-14.247,0-39.579,6.325-58.569,52.245c-3.162,7.923,0,17.409,7.923,20.588 c7.923,3.179,17.409,0,20.588-7.923c9.504-20.588,20.588-33.238,30.075-33.238c9.487,0,22.17,12.666,30.075,33.238l33.238,77.577 c1.581,4.743,4.743,9.504,6.325,12.666c-4.743,6.325-11.085,9.504-15.828,9.504c-9.504,0-22.17-12.666-30.075-33.237 c-3.162-7.923-12.666-11.085-20.588-7.923c-7.923,1.58-11.085,11.085-7.923,18.989c18.99,45.903,45.903,52.245,58.569,52.245 c7.923,0,20.588-3.162,33.238-14.247c12.666,12.666,25.332,14.247,33.238,14.247c14.247,0,39.579-6.325,58.569-52.245 l28.494-68.073l28.493,68.073c3.162,7.923,12.666,11.085,20.589,7.923c7.923-3.161,11.085-12.666,7.923-20.588l-33.237-77.577 c-1.581-4.743-4.743-9.504-6.325-12.666c4.743-6.325,11.085-9.504,15.828-9.504c9.504,0,22.17,12.666,30.075,33.238 c3.162,7.923,12.666,11.085,20.588,7.923c11.085-1.581,15.828-11.085,12.666-18.99H437.006z M285.015,299.222 c-9.504,20.588-20.588,33.237-30.075,33.237c-4.743,0-9.504-3.162-15.828-9.504c1.581-3.162,4.743-7.923,6.325-12.666 l33.238-77.577c9.504-20.588,20.588-33.238,30.075-33.238c4.743,0,9.504,3.162,15.828,9.504c-1.581,3.162-4.743,7.923-6.325,12.666 C318.253,221.645,285.015,299.222,285.015,299.222"/> </g>  </g><g id="ProcessOnG1042" transform="matrix(1.0,0.0,0.0,1.0,-20.0,40.125)"><text id="ProcessOnText1043" fill="#000000" font-size="13" x="43.75" y="13.325" font-family="微软雅黑" font-weight="normal" font-style="normal" text-decoration="none" family="微软雅黑" text-anchor="middle" size="13"></text><text id="ProcessOnText1044" fill="#000000" font-size="13" x="43.75" y="29.575" font-family="微软雅黑" font-weight="normal" font-style="normal" text-decoration="none" family="微软雅黑" text-anchor="middle" size="13">弹性伸缩服务E</text><text id="ProcessOnText1045" fill="#000000" font-size="13" x="43.75" y="45.825" font-family="微软雅黑" font-weight="normal" font-style="normal" text-decoration="none" family="微软雅黑" text-anchor="middle" size="13">SS</text></g></g><g id="ProcessOnG1046" transform="matrix(1.0,0.0,0.0,1.0,488.625,799.5)" opacity="1.0"><g id="ProcessOnG1048" transform="matrix(0.10107421875,0.0,0.0,0.1005859375,0.0,0.0)"> <g> <path fill="#C8F280" d="M258.525,509.706h-0.009c-59.002,0-116.024-4.052-156.434-11.121 c-63.337-11.091-78.335-25.959-89.152-88.42c-14.404-83.149-14.183-224.212,0.48-308.031c11.06-63.299,25.937-78.297,88.405-89.152 c39.64-6.886,93.615-10.687,151.978-10.687c58.881,0,115.781,4.045,156.091,11.098c63.314,11.083,78.306,25.959,89.152,88.42 c14.427,83.164,14.229,224.258-0.442,308.092c-11.045,63.313-25.929,78.305-88.404,89.167 C370.612,505.928,316.743,509.706,258.525,509.706 M253.795,17.894c-57.495,0-110.518,3.717-149.312,10.458 c-55.88,9.704-65.782,19.713-75.7,76.461c-14.419,82.38-14.633,220.997-0.48,302.699c9.674,55.85,19.683,65.768,76.469,75.715 c39.564,6.916,95.596,10.877,153.745,10.877h0.009c57.364,0,110.273-3.687,149-10.39c55.895-9.72,65.797-19.729,75.715-76.492 c14.412-82.402,14.609-221.036,0.441-302.745c-9.72-55.872-19.729-65.782-76.477-75.715 C367.733,21.855,311.807,17.894,253.795,17.894"/> <path fill="#C8F280" d="M300.096,113.535c-66.946,0-123.095,46.178-138.358,108.417c-1.362-0.062-2.73-0.101-4.106-0.101 c-48.702,0-88.184,39.476-88.191,88.176c0.003,24.35,9.873,46.364,25.831,62.318c15.959,15.962,38.008,25.774,62.361,25.774 s46.402-9.982,62.361-25.941c13.823-13.825,23.065-32.333,25.295-52.905l-20.199-2.493c-7.256-0.897-9.591-6.402-5.187-12.24 l39.453-52.288c4.403-5.837,10.34-5.104,13.19,1.627l25.562,60.312c2.853,6.73-0.75,11.505-8.007,10.612l-17.869-2.207 c-2.714,24.857-13.133,46.752-28.771,64.136c17.36,7.534,36.504,11.733,56.636,11.733c78.683,0,142.464-63.784,142.464-142.465 C442.56,177.319,378.777,113.535,300.096,113.535"/> </g>  </g><g id="ProcessOnG1049" transform="matrix(1.0,0.0,0.0,1.0,-20.0,58.375)"><text id="ProcessOnText1050" fill="#000000" font-size="13" x="44.875" y="13.325" font-family="微软雅黑" font-weight="normal" font-style="normal" text-decoration="none" family="微软雅黑" text-anchor="middle" size="13">云存储OSS</text></g></g><g id="ProcessOnG1051" transform="matrix(1.0,0.0,0.0,1.0,123.125,708.5)" opacity="1.0"><g id="ProcessOnG1053" transform="matrix(0.0986328125,0.0,0.0,0.1005859375,0.0,0.0)"> <g> <path fill="#C8F280" d="M258.525,509.706h-0.009c-59.002,0-116.024-4.052-156.434-11.121 c-63.337-11.091-78.335-25.959-89.152-88.42c-14.404-83.149-14.183-224.212,0.48-308.031c11.06-63.299,25.937-78.297,88.405-89.152 c39.64-6.886,93.615-10.687,151.978-10.687c58.881,0,115.781,4.045,156.091,11.098c63.314,11.083,78.306,25.959,89.152,88.42 c14.427,83.164,14.229,224.258-0.442,308.092c-11.045,63.313-25.929,78.305-88.404,89.167 C370.612,505.928,316.743,509.706,258.525,509.706 M253.795,17.894c-57.495,0-110.518,3.717-149.312,10.458 c-55.88,9.704-65.782,19.713-75.7,76.461c-14.419,82.38-14.633,220.997-0.48,302.699c9.674,55.85,19.683,65.768,76.469,75.715 c39.564,6.916,95.596,10.877,153.745,10.877h0.009c57.364,0,110.273-3.687,149-10.39c55.895-9.72,65.797-19.729,75.715-76.492 c14.412-82.402,14.609-221.036,0.441-302.745c-9.72-55.872-19.729-65.782-76.477-75.715 C367.733,21.855,311.807,17.894,253.795,17.894"/> <path fill="#C8F280" d="M361.473,117.286c2.817,0,5.646,0.218,8.444,0.66c2.802,0.44,5.574,1.101,8.28,1.983 c2.708,0.883,5.348,1.987,7.88,3.315c2.535,1.329,4.962,2.88,7.242,4.658c4.568,3.565,8.111,7.697,10.6,12.126 c2.501,4.449,3.942,9.199,4.296,13.973c0.357,4.795-0.385,9.613-2.253,14.166c-1.875,4.574-4.886,8.878-9.057,12.617 c-2.089,1.875-4.374,3.519-6.806,4.93c-2.434,1.412-5.015,2.59-7.701,3.535c-2.687,0.944-5.478,1.652-8.327,2.125 c-2.851,0.474-5.759,0.71-8.681,0.71c-1.381,0-2.761-0.053-4.143-0.158c-1.382-0.106-2.761-0.264-4.132-0.476 c-1.373-0.212-2.736-0.476-4.09-0.792c-1.354-0.317-2.694-0.685-4.02-1.108l-36.574,32.259c2.607,4.109,4.583,8.452,5.919,12.917 c1.344,4.485,2.044,9.095,2.093,13.716c0.048,4.643-0.561,9.296-1.831,13.845c-1.279,4.571-3.227,9.034-5.853,13.271l39.363,34.004 c1.516-0.61,3.062-1.143,4.635-1.597c1.569-0.456,3.164-0.836,4.775-1.14c1.609-0.303,3.24-0.53,4.877-0.683 c1.64-0.15,3.288-0.228,4.941-0.228c3.081,0,6.175,0.264,9.24,0.791c3.065,0.526,6.104,1.317,9.068,2.371 c2.967,1.058,5.862,2.379,8.642,3.967c2.781,1.591,5.448,3.449,7.953,5.577c5.026,4.27,8.935,9.224,11.694,14.535 c2.771,5.335,4.387,11.035,4.813,16.764c0.428,5.759-0.346,11.547-2.358,17.019c-2.022,5.501-5.292,10.677-9.84,15.176 c-2.281,2.257-4.775,4.234-7.433,5.933c-2.664,1.702-5.49,3.122-8.43,4.257c-2.945,1.138-6.003,1.994-9.128,2.563 c-3.126,0.569-6.316,0.854-9.524,0.854c-3.204,0-6.426-0.284-9.61-0.854c-3.185-0.569-6.332-1.426-9.396-2.563 c-3.059-1.136-6.036-2.555-8.875-4.257c-2.836-1.697-5.535-3.675-8.054-5.933c-4.123-3.697-7.433-7.854-9.923-12.269 c-2.479-4.397-4.146-9.053-4.997-13.77c-0.848-4.697-0.887-9.458-0.117-14.091c0.768-4.616,2.338-9.107,4.711-13.29l-37.771-33.198 c-2.688,1.577-5.484,2.959-8.364,4.145c-2.882,1.188-5.846,2.179-8.864,2.973c-3.022,0.792-6.098,1.388-9.201,1.786 c-3.105,0.397-6.238,0.596-9.371,0.596c-2.63,0-5.26-0.14-7.873-0.42c-2.615-0.281-5.21-0.702-7.775-1.262 c-2.562-0.559-5.093-1.258-7.574-2.096c-2.48-0.836-4.911-1.813-7.277-2.928l-40.53,35.747c1.533,3.956,2.418,8.098,2.658,12.294 c0.24,4.212-0.172,8.479-1.234,12.664c-1.067,4.199-2.788,8.318-5.164,12.213c-2.385,3.908-5.427,7.589-9.124,10.904 c-2.518,2.257-5.218,4.234-8.053,5.933c-2.841,1.702-5.816,3.122-8.875,4.257c-3.064,1.138-6.212,1.994-9.396,2.563 c-3.186,0.568-6.405,0.854-9.613,0.854c-3.206,0-6.396-0.284-9.522-0.854c-3.123-0.569-6.182-1.426-9.126-2.563 c-2.942-1.136-5.767-2.555-8.43-4.257c-2.658-1.697-5.15-3.675-7.432-5.933c-4.547-4.499-7.817-9.675-9.84-15.176 c-2.012-5.472-2.788-11.26-2.36-17.019c0.426-5.728,2.04-11.429,4.814-16.764c2.76-5.311,6.667-10.266,11.694-14.535 c2.505-2.128,5.173-3.986,7.956-5.575c2.778-1.59,5.672-2.911,8.639-3.967c2.966-1.055,6.001-1.845,9.068-2.373 c3.064-0.526,6.157-0.789,9.238-0.789c2.167,0,4.326,0.129,6.465,0.39c2.137,0.263,4.254,0.652,6.334,1.176 c2.081,0.52,4.125,1.173,6.117,1.956c1.994,0.782,3.934,1.698,5.809,2.745l37.008-32.074c-3.693-4.81-6.435-9.993-8.234-15.357 c-1.791-5.337-2.649-10.848-2.586-16.343c0.061-5.466,1.033-10.915,2.903-16.16c1.861-5.218,4.613-10.237,8.246-14.875 l-34.108-29.979c-1.725,0.78-3.491,1.462-5.288,2.048c-1.797,0.585-3.627,1.073-5.477,1.465c-1.847,0.39-3.716,0.683-5.593,0.878 c-1.875,0.195-3.758,0.293-5.636,0.293c-2.92,0-5.827-0.237-8.677-0.71c-2.85-0.473-5.639-1.182-8.327-2.126 c-2.686-0.942-5.268-2.122-7.703-3.535c-2.43-1.409-4.713-3.051-6.803-4.926c-4.171-3.739-7.184-8.043-9.059-12.617 c-1.869-4.554-2.608-9.371-2.253-14.166c0.354-4.774,1.796-9.524,4.296-13.973c2.491-4.429,6.034-8.561,10.602-12.126 c2.279-1.778,4.707-3.329,7.242-4.658c2.532-1.328,5.173-2.432,7.88-3.315c2.705-0.881,5.479-1.543,8.277-1.983 c2.802-0.441,5.63-0.66,8.446-0.66c2.816,0,5.621,0.218,8.374,0.66c2.755,0.44,5.46,1.101,8.071,1.983 c2.616,0.883,5.139,1.987,7.532,3.315c2.396,1.329,4.661,2.88,6.755,4.658c3.223,2.736,5.803,5.809,7.745,9.093 c1.948,3.296,3.254,6.805,3.917,10.404c0.668,3.611,0.686,7.315,0.061,10.979c-0.627,3.677-1.905,7.315-3.833,10.786l35.568,30.724 c2.418-1.167,4.898-2.186,7.43-3.058c2.53-0.872,5.107-1.599,7.719-2.178c2.608-0.582,5.251-1.016,7.909-1.306 c2.658-0.29,5.334-0.434,8.007-0.434c3.146,0,6.29,0.2,9.408,0.601c3.118,0.401,6.212,1.003,9.251,1.805 c3.044,0.803,6.031,1.808,8.939,3.015c2.911,1.207,5.741,2.619,8.466,4.235l33.445-28.988c-2.765-3.66-4.73-7.597-5.896-11.638 c-1.161-4.022-1.527-8.143-1.098-12.188c0.427-4.028,1.644-7.979,3.648-11.683c2-3.691,4.783-7.137,8.355-10.171 c2.094-1.778,4.356-3.329,6.753-4.658c2.393-1.328,4.917-2.432,7.532-3.315c2.612-0.881,5.317-1.543,8.07-1.983 C355.853,117.504,358.658,117.286,361.473,117.286"/> </g>  </g><g id="ProcessOnG1054" transform="matrix(1.0,0.0,0.0,1.0,-20.0,50.25)"><text id="ProcessOnText1055" fill="#000000" font-size="13" x="44.25" y="13.325" font-family="微软雅黑" font-weight="normal" font-style="normal" text-decoration="none" family="微软雅黑" text-anchor="middle" size="13"></text><text id="ProcessOnText1056" fill="#000000" font-size="13" x="44.25" y="29.575" font-family="微软雅黑" font-weight="normal" font-style="normal" text-decoration="none" family="微软雅黑" text-anchor="middle" size="13">CDN</text></g></g><g id="ProcessOnG1057" transform="matrix(1.0,0.0,0.0,1.0,854.6875,712.5)" opacity="1.0"><g id="ProcessOnG1059" transform="matrix(0.1025390625,0.0,0.0,0.1025390625,0.0,0.0)"> <g> <path fill="#4BECBC" d="M499.037,101.813c-10.847-62.461-25.838-77.337-89.152-88.42c-40.31-7.053-97.21-11.098-156.091-11.098 c-58.363,0-112.338,3.801-151.978,10.687c-62.468,10.855-77.345,25.853-88.405,89.152c-14.663,83.819-14.884,224.882-0.48,308.031 c10.817,62.461,25.815,77.329,89.152,88.42c40.409,7.069,97.431,11.121,156.434,11.121h0.009 c58.218,0,112.087-3.778,151.665-10.634c62.476-10.862,77.359-25.854,88.404-89.167 C513.266,326.071,513.464,184.977,499.037,101.813 M483.24,407.222c-9.918,56.764-19.82,66.772-75.715,76.492 c-38.727,6.703-91.636,10.39-149,10.39h-0.009c-58.148,0-114.181-3.961-153.745-10.877c-56.786-9.947-66.795-19.865-76.469-75.715 c-14.153-81.702-13.939-220.319,0.48-302.699c9.918-56.748,19.82-66.757,75.7-76.461c38.794-6.741,91.817-10.458,149.312-10.458 c58.012,0,113.938,3.961,153.41,10.868c56.748,9.933,66.757,19.843,76.477,75.715C497.85,186.186,497.652,324.819,483.24,407.222" /> <path fill="#4BECBC" d="M280.518,123.651l-22.276,35.732l-22.277-35.732h-89.4l-44.703,68.943l44.703,74.457h54.917l-32.64,49.598 l44.697,71.7h89.405l40.221-71.7l-28.16-49.598h50.432l44.704-74.457l-44.702-68.943H280.518z M212.154,244.508L212.154,244.508 l0.69-1.035l45.055-55.038l42.641,56.073H212.154z"/> </g>  </g><g id="ProcessOnG1060" transform="matrix(1.0,0.0,0.0,1.0,-20.0,59.375)"><text id="ProcessOnText1061" fill="#000000" font-size="13" x="45.25" y="13.325" font-family="微软雅黑" font-weight="normal" font-style="normal" text-decoration="none" family="微软雅黑" text-anchor="middle" size="13">RDS</text></g></g><g id="ProcessOnG1062" transform="matrix(1.0,0.0,0.0,1.0,413.875,247.0)" opacity="1.0"><g id="ProcessOnG1064" transform="matrix(0.0986328125,0.0,0.0,0.099609375,0.0,0.0)"> <g> <path fill="#33CCFF" d="M499.037,101.813c-10.847-62.461-25.838-77.337-89.152-88.42c-40.31-7.053-97.21-11.098-156.091-11.098 c-58.363,0-112.338,3.801-151.978,10.687c-62.468,10.855-77.345,25.853-88.405,89.152c-14.663,83.819-14.884,224.882-0.48,308.031 c10.817,62.461,25.815,77.329,89.152,88.42c40.409,7.069,97.431,11.121,156.434,11.121h0.009 c58.218,0,112.087-3.778,151.665-10.634c62.476-10.862,77.359-25.854,88.404-89.167 C513.266,326.071,513.464,184.977,499.037,101.813 M483.24,407.222c-9.918,56.764-19.82,66.772-75.715,76.492 c-38.727,6.703-91.636,10.39-149,10.39h-0.009c-58.148,0-114.181-3.961-153.745-10.877c-56.786-9.947-66.795-19.865-76.469-75.715 c-14.153-81.702-13.939-220.319,0.48-302.699c9.918-56.748,19.82-66.757,75.7-76.461c38.794-6.741,91.817-10.458,149.312-10.458 c58.012,0,113.938,3.961,153.41,10.868c56.748,9.933,66.757,19.843,76.477,75.715C497.85,186.186,497.652,324.819,483.24,407.222" /> <path fill="#33CCFF" d="M352.886,268.62c-9.057,0.076-17.597,2.196-25.341,5.663l-32.814-46.134 c12.2-10.213,20.06-25.049,19.986-41.618c-0.133-30.684-26.741-55.57-59.65-55.57c-32.73,0.161-59.216,25.327-59.088,56.043 c0.086,16.583,8.076,31.315,20.36,41.504l-32.343,46.419c-7.674-3.396-16.137-5.469-25.426-5.469 c-32.696,0.162-59.222,25.294-59.097,56.091c0.133,30.626,26.751,55.491,59.653,55.491c29.879-0.129,54.329-21.144,58.282-48.223 l77.284-0.324c4.234,26.969,28.768,47.739,58.745,47.739c32.738-0.15,59.261-25.294,59.092-56.045 C412.405,293.498,385.744,268.62,352.886,268.62 M294.607,316.838l-77.291,0.32c-2.083-13.341-9.137-25.127-19.425-33.644 l32.312-46.457c7.616,3.41,15.981,5.474,24.866,5.474c0.179,0,0.36-0.002,0.541-0.003c9.112-0.031,17.65-2.153,25.386-5.667 l32.773,46.179C303.534,291.676,296.557,303.45,294.607,316.838"/> </g>  </g><g id="ProcessOnG1065" transform="matrix(1.0,0.0,0.0,1.0,-20.0,57.875)"><text id="ProcessOnText1066" fill="#000000" font-size="13" x="44.25" y="13.325" font-family="微软雅黑" font-weight="normal" font-style="normal" text-decoration="none" family="微软雅黑" text-anchor="middle" size="13">负载均衡SLB</text></g></g><g id="ProcessOnG1067" transform="matrix(1.0,0.0,0.0,1.0,1032.7535714285714,413.1875)" opacity="1.0"><g id="ProcessOnG1069" transform="matrix(0.09422433035714285,0.0,0.0,0.0966796875,0.0,0.0)"> <g> <path fill="#33CCFF" d="M499.037,101.813c-10.847-62.461-25.838-77.337-89.152-88.42c-40.31-7.053-97.21-11.098-156.091-11.098 c-58.363,0-112.338,3.801-151.978,10.687c-62.468,10.855-77.345,25.853-88.405,89.152c-14.663,83.819-14.884,224.882-0.48,308.031 c10.817,62.461,25.815,77.329,89.152,88.42c40.409,7.069,97.431,11.121,156.434,11.121h0.009 c58.218,0,112.087-3.778,151.665-10.634c62.476-10.862,77.359-25.854,88.404-89.167 C513.266,326.071,513.464,184.977,499.037,101.813 M483.24,407.222c-9.918,56.764-19.82,66.772-75.715,76.492 c-38.727,6.703-91.636,10.39-149,10.39h-0.009c-58.148,0-114.181-3.961-153.745-10.877c-56.786-9.947-66.795-19.865-76.469-75.715 c-14.153-81.702-13.939-220.319,0.48-302.699c9.918-56.748,19.82-66.757,75.7-76.461c38.794-6.741,91.817-10.458,149.312-10.458 c58.012,0,113.938,3.961,153.41,10.868c56.748,9.933,66.757,19.843,76.477,75.715C497.85,186.186,497.652,324.819,483.24,407.222" /> <path fill="#33CCFF" d="M437.006,221.645c-18.99-45.903-45.903-52.245-58.568-52.245c-7.924,0-20.589,3.162-33.238,14.247 c-12.666-12.666-25.332-14.247-33.237-14.247c-14.247,0-39.579,6.325-58.569,52.245l-31.656,68.073l-30.075-68.073 c-18.99-45.903-45.903-52.245-58.569-52.245c-14.247,0-39.579,6.325-58.569,52.245c-3.162,7.923,0,17.409,7.923,20.588 c7.923,3.179,17.409,0,20.588-7.923c9.504-20.588,20.588-33.238,30.075-33.238c9.487,0,22.17,12.666,30.075,33.238l33.238,77.577 c1.581,4.743,4.743,9.504,6.325,12.666c-4.743,6.325-11.085,9.504-15.828,9.504c-9.504,0-22.17-12.666-30.075-33.237 c-3.162-7.923-12.666-11.085-20.588-7.923c-7.923,1.58-11.085,11.085-7.923,18.989c18.99,45.903,45.903,52.245,58.569,52.245 c7.923,0,20.588-3.162,33.238-14.247c12.666,12.666,25.332,14.247,33.238,14.247c14.247,0,39.579-6.325,58.569-52.245 l28.494-68.073l28.493,68.073c3.162,7.923,12.666,11.085,20.589,7.923c7.923-3.161,11.085-12.666,7.923-20.588l-33.237-77.577 c-1.581-4.743-4.743-9.504-6.325-12.666c4.743-6.325,11.085-9.504,15.828-9.504c9.504,0,22.17,12.666,30.075,33.238 c3.162,7.923,12.666,11.085,20.588,7.923c11.085-1.581,15.828-11.085,12.666-18.99H437.006z M285.015,299.222 c-9.504,20.588-20.588,33.237-30.075,33.237c-4.743,0-9.504-3.162-15.828-9.504c1.581-3.162,4.743-7.923,6.325-12.666 l33.238-77.577c9.504-20.588,20.588-33.238,30.075-33.238c4.743,0,9.504,3.162,15.828,9.504c-1.581,3.162-4.743,7.923-6.325,12.666 C318.253,221.645,285.015,299.222,285.015,299.222"/> </g>  </g><g id="ProcessOnG1070" transform="matrix(1.0,0.0,0.0,1.0,-20.0,40.125)"><text id="ProcessOnText1071" fill="#000000" font-size="13" x="43.12142857142857" y="13.325" font-family="微软雅黑" font-weight="normal" font-style="normal" text-decoration="none" family="微软雅黑" text-anchor="middle" size="13"></text><text id="ProcessOnText1072" fill="#000000" font-size="13" x="43.12142857142857" y="29.575" font-family="微软雅黑" font-weight="normal" font-style="normal" text-decoration="none" family="微软雅黑" text-anchor="middle" size="13">弹性伸缩服务E</text><text id="ProcessOnText1073" fill="#000000" font-size="13" x="43.12142857142857" y="45.825" font-family="微软雅黑" font-weight="normal" font-style="normal" text-decoration="none" family="微软雅黑" text-anchor="middle" size="13">SS</text></g></g><g id="ProcessOnG1074" transform="matrix(1.0,0.0,0.0,1.0,348.625,429.46875)" opacity="1.0"><path id="ProcessOnPath1075" d="M0.0 0.0L90.0 0.0L90.0 46.75L0.0 46.75Z" stroke="#e5e5e5" stroke-width="2.0" stroke-dasharray="none" opacity="1.0" fill="#e5e5e5"/><g id="ProcessOnG1076" transform="matrix(1.0,0.0,0.0,1.0,10.0,15.25)"><text id="ProcessOnText1077" fill="#000000" font-size="13" x="34.0" y="13.325" font-family="微软雅黑" font-weight="normal" font-style="normal" text-decoration="none" family="微软雅黑" text-anchor="middle" size="13">注册/登陆</text></g></g><g id="ProcessOnG1078" transform="matrix(1.0,0.0,0.0,1.0,462.875,430.6875)" opacity="1.0"><path id="ProcessOnPath1079" d="M0.0 0.0L82.75 0.0L82.75 47.125L0.0 47.125Z" stroke="#e5e5e5" stroke-width="2.0" stroke-dasharray="none" opacity="1.0" fill="#e5e5e5"/><g id="ProcessOnG1080" transform="matrix(1.0,0.0,0.0,1.0,10.0,15.4375)"><text id="ProcessOnText1081" fill="#000000" font-size="13" x="30.375" y="13.325" font-family="微软雅黑" font-weight="normal" font-style="normal" text-decoration="none" family="微软雅黑" text-anchor="middle" size="13">上传/转码</text></g></g><g id="ProcessOnG1082" transform="matrix(1.0,0.0,0.0,1.0,613.875,430.0625)" opacity="1.0"><path id="ProcessOnPath1083" d="M0.0 0.0L103.0 0.0L103.0 47.75L0.0 47.75Z" stroke="#e5e5e5" stroke-width="2.0" stroke-dasharray="none" opacity="1.0" fill="#e5e5e5"/><g id="ProcessOnG1084" transform="matrix(1.0,0.0,0.0,1.0,10.0,7.625)"><text id="ProcessOnText1085" fill="#000000" font-size="13" x="40.5" y="13.325" font-family="微软雅黑" font-weight="normal" font-style="normal" text-decoration="none" family="微软雅黑" text-anchor="middle" size="13">CMS审核服</text><text id="ProcessOnText1086" fill="#000000" font-size="13" x="40.5" y="29.575" font-family="微软雅黑" font-weight="normal" font-style="normal" text-decoration="none" family="微软雅黑" text-anchor="middle" size="13">务</text></g></g><g id="ProcessOnG1087" transform="matrix(1.0,0.0,0.0,1.0,785.625,428.96875)" opacity="1.0"><path id="ProcessOnPath1088" d="M0.0 0.0L91.5 0.0L91.5 49.9375L0.0 49.9375Z" stroke="#e5e5e5" stroke-width="2.0" stroke-dasharray="none" opacity="1.0" fill="#e5e5e5"/><g id="ProcessOnG1089" transform="matrix(1.0,0.0,0.0,1.0,10.0,16.84375)"><text id="ProcessOnText1090" fill="#000000" font-size="13" x="34.75" y="13.325" font-family="微软雅黑" font-weight="normal" font-style="normal" text-decoration="none" family="微软雅黑" text-anchor="middle" size="13">源站服务</text></g></g><g id="ProcessOnG1091"><path id="ProcessOnPath1092" d="M980.125 453.9375L941.875 453.9375L941.875 453.9375L917.2430339887499 453.9375" stroke="#66b2ff" stroke-width="1.0" stroke-dasharray="none" fill="none" marker-end="url(#ProcessOnMarker1093)"/></g><g id="ProcessOnG1095"><path id="ProcessOnPath1096" d="M246.625 453.9375L276.125 453.9375L276.125 453.9375L292.0069660112501 453.9375" stroke="#66b2ff" stroke-width="1.0" stroke-dasharray="none" fill="none" marker-end="url(#ProcessOnMarker1097)"/></g><g id="ProcessOnG1099"><path id="ProcessOnPath1100" d="M439.125 167.0L439.125 204.0L439.125 204.0L439.125 227.3819660112501" stroke="#66b2ff" stroke-width="1.0" stroke-dasharray="none" fill="none" marker-end="url(#ProcessOnMarker1101)"/></g><g id="ProcessOnG1103" transform="matrix(1.0,0.0,0.0,1.0,405.625,182.0)" opacity="1.0"><path id="ProcessOnPath1104" d="M0.0 0.0L160.0 0.0L160.0 40.0L0.0 40.0Z" stroke="none" stroke-width="0.0" stroke-dasharray="none" opacity="1.0" fill="none"/><g id="ProcessOnG1105" transform="matrix(1.0,0.0,0.0,1.0,0.0,11.875)"><text id="ProcessOnText1106" fill="#000000" font-size="13" x="79.0" y="13.325" font-family="微软雅黑" font-weight="normal" font-style="normal" text-decoration="none" family="微软雅黑" text-anchor="middle" size="13">视频上传</text></g></g><g id="ProcessOnG1107"><path id="ProcessOnPath1108" d="M828.75 163.0L828.75 278.5L828.75 278.5L828.75 380.3819660112501" stroke="#66b2ff" stroke-width="1.0" stroke-dasharray="none" fill="none" marker-end="url(#ProcessOnMarker1109)"/></g><g id="ProcessOnG1111"><path id="ProcessOnPath1112" d="M439.125 329.0L439.125 363.0L439.125 363.0L439.125 383.3819660112501" stroke="#66b2ff" stroke-width="1.0" stroke-dasharray="none" fill="none" marker-end="url(#ProcessOnMarker1113)"/></g><g id="ProcessOnG1115"><path id="ProcessOnPath1116" d="M513.875 123.0L631.25 123.0L631.25 123.0L735.0069660112501 123.0" stroke="#66b2ff" stroke-width="1.0" stroke-dasharray="none" fill="none" marker-end="url(#ProcessOnMarker1117)"/></g><g id="ProcessOnG1119" transform="matrix(1.0,0.0,0.0,1.0,545.625,88.5)" opacity="1.0"><path id="ProcessOnPath1120" d="M0.0 0.0L160.0 0.0L160.0 40.0L0.0 40.0Z" stroke="none" stroke-width="0.0" stroke-dasharray="none" opacity="1.0" fill="none"/><g id="ProcessOnG1121" transform="matrix(1.0,0.0,0.0,1.0,0.0,11.875)"><text id="ProcessOnText1122" fill="#000000" font-size="13" x="79.0" y="13.325" font-family="微软雅黑" font-weight="normal" font-style="normal" text-decoration="none" family="微软雅黑" text-anchor="middle" size="13">点播</text></g></g><g id="ProcessOnG1123" transform="matrix(1.0,0.0,0.0,1.0,606.875,254.0)" opacity="1.0"><path id="ProcessOnPath1124" d="M0.0 35.0C0.0 -11.666666666666666 117.0 -11.666666666666666 117.0 35.0C117.0 81.66666666666667 0.0 81.66666666666667 0.0 35.0Z" stroke="#66b2ff" stroke-width="1.0" stroke-dasharray="none" opacity="1.0" fill="#ffffff"/><g id="ProcessOnG1125" transform="matrix(1.0,0.0,0.0,1.0,10.0,26.875)"><text id="ProcessOnText1126" fill="#000000" font-size="13" x="47.5" y="13.325" font-family="微软雅黑" font-weight="normal" font-style="normal" text-decoration="none" family="微软雅黑" text-anchor="middle" size="13">后台管理系统</text></g></g><g id="ProcessOnG1127"><path id="ProcessOnPath1128" d="M665.375 324.0L665.375 363.84375L665.375 363.84375L665.375 390.0694660112501" stroke="#66b2ff" stroke-width="1.0" stroke-dasharray="none" fill="none" marker-end="url(#ProcessOnMarker1129)"/></g><g id="ProcessOnG1131" transform="matrix(1.0,0.0,0.0,1.0,373.875,655.875)" opacity="1.0"><path id="ProcessOnPath1132" d="M0.0 0.0L114.75 0.0L114.75 46.75L0.0 46.75Z" stroke="#e5e5e5" stroke-width="2.0" stroke-dasharray="none" opacity="1.0" fill="#e5e5e5"/><g id="ProcessOnG1133" transform="matrix(1.0,0.0,0.0,1.0,10.0,15.25)"><text id="ProcessOnText1134" fill="#000000" font-size="13" x="46.375" y="13.325" font-family="微软雅黑" font-weight="normal" font-style="normal" text-decoration="none" family="微软雅黑" text-anchor="middle" size="13">媒体转码MTS</text></g></g><g id="ProcessOnG1135" transform="matrix(1.0,0.0,0.0,1.0,546.125,655.875)" opacity="1.0"><path id="ProcessOnPath1136" d="M0.0 0.0L114.75 0.0L114.75 46.75L0.0 46.75Z" stroke="#e5e5e5" stroke-width="2.0" stroke-dasharray="none" opacity="1.0" fill="#e5e5e5"/><g id="ProcessOnG1137" transform="matrix(1.0,0.0,0.0,1.0,10.0,15.25)"><text id="ProcessOnText1138" fill="#000000" font-size="13" x="46.375" y="13.325" font-family="微软雅黑" font-weight="normal" font-style="normal" text-decoration="none" family="微软雅黑" text-anchor="middle" size="13">消息服务MNS</text></g></g><g id="ProcessOnG1139"><path id="ProcessOnPath1140" d="M488.625 679.25L517.375 679.25L517.375 679.25L532.5069660112501 679.25" stroke="#3399ff" stroke-width="1.0" stroke-dasharray="none" fill="none" marker-end="url(#ProcessOnMarker1141)"/></g><g id="ProcessOnG1143"><path id="ProcessOnPath1144" d="M431.0 784.0L431.0 743.3125L431.25 743.3125L431.25 716.2430339887499" stroke="#66b2ff" stroke-width="1.0" stroke-dasharray="none" fill="none" marker-end="url(#ProcessOnMarker1145)"/></g><g id="ProcessOnG1147"><path id="ProcessOnPath1148" d="M602.625 784.0L602.625 743.3125L603.5 743.3125L603.5 716.2430339887499" stroke="#66b2ff" stroke-width="1.0" stroke-dasharray="none" fill="none" marker-end="url(#ProcessOnMarker1149)"/></g><g id="ProcessOnG1151" transform="matrix(1.0,0.0,0.0,1.0,800.9375,669.0)" opacity="1.0"><path id="ProcessOnPath1152" d="M0.0 0.0L160.0 0.0L160.0 40.0L0.0 40.0Z" stroke="none" stroke-width="0.0" stroke-dasharray="none" opacity="1.0" fill="none"/><g id="ProcessOnG1153" transform="matrix(1.0,0.0,0.0,1.0,0.0,11.875)"><text id="ProcessOnText1154" fill="#000000" font-size="13" x="79.0" y="13.325" font-family="微软雅黑" font-weight="normal" font-style="normal" text-decoration="none" family="微软雅黑" text-anchor="middle" size="13">业务数据库</text></g></g><g id="ProcessOnG1155"><path id="ProcessOnPath1156" d="M205.625 815.7915917266187L286.625 815.7915917266187L286.625 816.0L354.0069660112501 816.0" stroke="#66b2ff" stroke-width="1.0" stroke-dasharray="none" fill="none" marker-end="url(#ProcessOnMarker1157)"/></g><g id="ProcessOnG1159"><path id="ProcessOnPath1160" d="M367.625 845.0L286.625 845.0L286.625 845.5757643884892L219.2430339887499 845.5757643884892" stroke="#66b2ff" stroke-width="1.0" stroke-dasharray="none" fill="none" marker-end="url(#ProcessOnMarker1161)"/></g><g id="ProcessOnG1163"><path id="ProcessOnPath1164" d="M449.625 505.0L828.8211489246067 642.3618702737095" stroke="#66b2ff" stroke-width="1.0" stroke-dasharray="none" fill="none" marker-end="url(#ProcessOnMarker1165)"/></g><g id="ProcessOnG1167"><path id="ProcessOnPath1168" d="M677.625 502.0L876.2157666038719 638.5348493660221" stroke="#66b2ff" stroke-width="1.0" stroke-dasharray="none" fill="none" marker-end="url(#ProcessOnMarker1169)"/></g><g id="ProcessOnG1171"><path id="ProcessOnPath1172" d="M848.625 503.0L907.0941925651454 634.5556832715772" stroke="#66b2ff" stroke-width="1.0" stroke-dasharray="none" fill="none" marker-end="url(#ProcessOnMarker1173)"/></g><g id="ProcessOnG1175"><path id="ProcessOnPath1176" d="M432.636129562432 618.3819660768575L432.62633674484573 518.6180339231425" stroke="#66b2ff" stroke-width="1.0" stroke-dasharray="none" fill="none" marker-start="url(#ProcessOnMarker1177)" marker-end="url(#ProcessOnMarker1179)"/></g><g id="ProcessOnG1181" transform="matrix(1.0,0.0,0.0,1.0,302.875,558.0)" opacity="1.0"><path id="ProcessOnPath1182" d="M0.0 0.0L160.0 0.0L160.0 40.0L0.0 40.0Z" stroke="none" stroke-width="0.0" stroke-dasharray="none" opacity="1.0" fill="none"/><g id="ProcessOnG1183" transform="matrix(1.0,0.0,0.0,1.0,0.0,11.875)"><text id="ProcessOnText1184" fill="#000000" font-size="13" x="79.0" y="13.325" font-family="微软雅黑" font-weight="normal" font-style="normal" text-decoration="none" family="微软雅黑" text-anchor="middle" size="13">上传服务集群</text></g></g><g id="ProcessOnG1185" transform="matrix(1.0,0.0,0.0,1.0,850.3846153846152,544.0)" opacity="1.0"><path id="ProcessOnPath1186" d="M0.0 0.0L160.0 0.0L160.0 40.0L0.0 40.0Z" stroke="none" stroke-width="0.0" stroke-dasharray="none" opacity="1.0" fill="none"/><g id="ProcessOnG1187" transform="matrix(1.0,0.0,0.0,1.0,0.0,11.875)"><text id="ProcessOnText1188" fill="#000000" font-size="13" x="79.0" y="13.325" font-family="微软雅黑" font-weight="normal" font-style="normal" text-decoration="none" family="微软雅黑" text-anchor="middle" size="13">源站服务集群</text></g></g></g></g></svg>